<?xml version="1.0" encoding="utf-8"?>
<!-- Generator: Adobe Illustrator 23.0.2, SVG Export Plug-In . SVG Version: 6.00 Build 0)  -->
<svg version="1.1" id="Layer_1" xmlns="http://www.w3.org/2000/svg" xmlns:xlink="http://www.w3.org/1999/xlink" x="0px" y="0px"
	 viewBox="0 0 898 293" style="enable-background:new 0 0 898 293;" xml:space="preserve">
<style type="text/css">
	.st0{enable-background:new    ;}
	.st1{fill:#FFFFFF;}
</style>
<g class="st0">
	<path class="st1" d="M45.3,288.6c-11.4,0-21-3.9-28.8-11.7C8.7,269,4.8,259.4,4.8,248v-40.5h40.5V248h81.1V167H45.3
		c-11.4,0-21-3.9-28.8-11.7c-7.8-7.8-11.7-17.4-11.7-28.8V45.4c0-11.2,3.9-20.7,11.7-28.5c7.8-8,17.4-12,28.8-12h81.1
		c11.2,0,20.7,4,28.5,12c8,7.8,12,17.3,12,28.5v40.5h-40.5V45.4H45.3v81.1h81.1c11.2,0,20.7,4,28.5,12c8,7.8,12,17.3,12,28.5V248
		c0,11.4-4,21-12,28.8c-7.8,7.8-17.3,11.7-28.5,11.7H45.3z"/>
	<path class="st1" d="M232.1,288.6V45.4h-60.8V4.8h162.1v40.5h-60.8v243.2H232.1z"/>
	<path class="st1" d="M358.1,288.6V45.4c0-11.2,3.9-20.7,11.7-28.5c7.8-8,17.4-12,28.8-12h81.1c11.2,0,20.7,4,28.5,12
		c8,7.8,12,17.3,12,28.5v243.2h-40.5V167h-81.1v121.6H358.1z M479.7,126.4V45.4h-81.1v81.1H479.7z"/>
	<path class="st1" d="M585.4,288.6c-11.4,0-21-3.9-28.8-11.7c-7.8-7.8-11.7-17.4-11.7-28.8V45.4c0-11.2,3.9-20.7,11.7-28.5
		c7.8-8,17.4-12,28.8-12H707v40.5H585.4V248H707v40.5H585.4z"/>
	<path class="st1" d="M731.6,288.6V4.8h40.5v121.6h20.3L853.3,4.8h40.5l-70.9,141.9l70.9,141.9h-40.5L792.4,167h-20.3v121.6H731.6z"
		/>
</g>
</svg>
