<svg width="32" height="32" viewBox="0 0 32 32" fill="none" xmlns="http://www.w3.org/2000/svg">
<g clip-path="url(#clip0)">
<mask id="mask0" mask-type="alpha" maskUnits="userSpaceOnUse" x="0" y="0" width="32" height="33">
<path fill-rule="evenodd" clip-rule="evenodd" d="M31.5994 11.7564C32.1138 11.4308 32.1378 10.6203 31.6425 10.2903L16.3775 0.117717C16.1383 -0.0416944 15.8356 -0.0390281 15.5904 0.124665L0.384729 10.2726C-0.122292 10.611 -0.129644 11.4199 0.371397 11.7374C2.78781 13.2686 5.20422 14.7997 7.62061 16.3308L15.6112 21.394C15.845 21.5422 16.1357 21.5387 16.3743 21.3846L21.9567 17.782L24.2066 16.3308L16.3615 11.2688C16.1306 11.1198 15.8424 11.1197 15.6036 11.2685L9.97289 14.7791C8 14 9 13 9.93557 12.245L15.5961 8.516C15.8384 8.35638 16.136 8.35309 16.373 8.50744L25.6003 14.5167L31.5994 11.7564Z" fill="#FD0F0F"/>
<path fill-rule="evenodd" clip-rule="evenodd" d="M24.2122 16.332L16.3672 11.27C16.1362 11.121 15.848 11.1209 15.6092 11.2698L9.97853 14.7803L7.62624 16.332L15.6168 21.3952C15.8506 21.5433 16.1414 21.5398 16.3799 21.3858L21.9623 17.7832L22.0927 17.8607C24 19 22.6189 19.7258 22.1031 20.0687L16.3931 23.8643C16.1516 24.0248 15.8543 24.0296 15.6168 23.8766L6.29381 17.8766L0.429091 20.8865C-0.089402 21.2177 -0.104106 22.0386 0.402671 22.3599L15.6206 32.0026C15.8524 32.1494 16.1403 32.1472 16.3779 31.9969L31.5641 22.3884C32.0877 22.0572 32.1009 21.2282 31.5878 20.9096L24.2122 16.332Z" fill="#FD0F0F"/>
<path d="M2.4944 11.2715H1.50781V16.604H2.4944V11.2715Z" fill="#FD1111"/>
<path d="M1.59626 16.8436C1.7525 16.517 2.21747 16.517 2.3737 16.8436L2.88817 17.9189C3.02502 18.2049 2.81653 18.5358 2.49945 18.5358H1.47051C1.15343 18.5358 0.944948 18.2049 1.08179 17.9189L1.59626 16.8436Z" fill="#FD0F0F"/>
<path d="M2.00879 17.0813C2.52709 17.0813 2.94726 16.611 2.94726 16.0309C2.94726 15.4508 2.52709 14.9805 2.00879 14.9805C1.49048 14.9805 1.07031 15.4508 1.07031 16.0309C1.07031 16.611 1.49048 17.0813 2.00879 17.0813Z" fill="#FD0F0F"/>
</mask>
<g mask="url(#mask0)">
<path d="M32 0H0V32H32V0Z" fill="#FD1111"/>
<path d="M16 0H0V32H16V0Z" fill="#C00403"/>
</g>
</g>
<defs>
<clipPath id="clip0">
<rect width="32" height="32" fill="white"/>
</clipPath>
</defs>
</svg>
